{"glyphs":{"0":{"ha":817,"x_min":0,"x_max":0,"o":"m 390 983 b 197 910 306 978 240 949 b 131 124 24 757 26 301 b 408 1 186 24 301 3 b 699 168 568 1 644 40 b 658 879 774 363 790 703 b 390 983 601 958 493 989 z m 276 256 b 314 794 235 442 240 672 b 511 792 372 896 474 901 b 532 265 551 683 560 414 b 276 256 489 56 314 101 z "},"1":{"ha":464,"x_min":0,"x_max":0,"o":"m 411 132 b 360 163 411 153 394 158 l 333 165 b 335 226 333 186 335 206 l 335 311 b 333 524 335 382 333 453 l 333 938 b 257 978 333 982 293 978 b 215 978 243 979 231 979 b 117 914 153 978 132 949 b 47 688 93 850 72 751 b 72 644 39 667 43 654 l 117 629 b 135 624 124 626 128 625 l 135 238 l 135 163 l 108 163 b 67 129 82 163 68 154 l 64 89 b 85 -4 64 65 65 -1 l 131 -3 l 349 0 b 406 25 356 0 389 -8 b 411 132 415 44 415 79 z "},"2":{"ha":631,"x_min":0,"x_max":0,"o":"m 299 147 b 489 539 361 281 425 410 b 569 782 528 618 567 697 b 367 975 574 897 492 969 b 58 639 144 988 36 865 b 85 594 61 614 69 597 b 235 596 135 588 185 588 b 258 736 272 601 251 674 b 368 742 274 881 406 871 b 303 567 351 683 332 624 b 218 393 276 508 247 451 b 58 54 161 281 92 168 b 89 4 49 19 57 4 b 510 4 199 6 400 4 b 564 26 535 4 560 1 b 560 126 569 60 572 93 b 540 143 558 133 558 143 b 299 146 490 143 349 146 b 300 153 299 147 299 150 z "},"3":{"ha":683,"x_min":0,"x_max":0,"o":"m 250 631 b 265 528 215 593 207 533 b 433 360 393 515 431 443 b 325 132 436 293 425 140 b 250 260 276 128 239 183 b 225 315 253 276 272 308 b 108 318 207 319 151 319 b 44 249 67 317 50 286 b 314 -1 24 85 115 -12 b 617 236 486 7 593 114 b 618 417 628 297 631 357 b 567 529 610 457 599 494 b 425 600 533 567 485 590 b 501 688 450 629 475 658 b 564 840 540 735 568 783 b 426 964 558 900 503 951 b 269 971 374 972 322 974 b 49 719 89 961 36 860 b 126 676 51 675 75 676 b 236 690 164 676 200 685 b 243 722 253 697 247 710 b 247 788 240 743 242 765 b 358 792 267 867 369 890 b 250 631 351 735 289 674 z "},"4":{"ha":803,"x_min":0,"x_max":0,"o":"m 617 368 b 617 556 617 431 617 493 b 618 722 617 611 618 667 b 618 938 618 788 617 872 b 569 981 618 963 611 978 b 432 978 524 983 478 982 b 382 946 401 975 390 965 b 290 729 353 879 322 794 b 201 557 261 671 232 614 b 114 386 172 500 143 443 b 47 256 90 343 72 299 b 43 151 26 224 32 186 b 61 135 47 144 49 135 b 200 133 108 133 153 133 b 410 133 269 133 340 133 b 410 42 410 103 414 71 b 442 11 408 25 417 14 b 586 13 490 6 539 4 b 610 33 600 15 610 19 b 610 135 608 67 610 100 b 683 136 636 135 660 133 b 747 153 707 139 739 126 b 747 257 757 188 757 222 b 708 274 742 272 731 275 b 614 274 676 272 643 274 b 614 376 614 307 614 342 z m 414 274 b 258 274 361 274 310 274 b 414 590 301 382 361 485 b 414 274 414 485 414 379 z "},"5":{"ha":668,"x_min":0,"x_max":0,"o":"m 249 225 b 244 338 243 282 244 335 b 218 365 244 350 243 361 b 68 364 168 374 118 374 b 47 343 56 361 49 357 b 93 78 39 258 49 144 b 289 1 135 18 201 1 b 544 83 407 1 497 26 b 589 421 618 169 617 313 b 257 633 550 543 432 619 b 257 838 257 694 257 779 b 547 838 331 838 474 838 b 597 857 568 838 590 835 b 593 958 603 892 607 925 b 576 975 592 965 590 975 b 443 978 532 976 489 978 b 126 978 361 978 208 976 b 60 939 86 978 60 971 b 58 835 60 904 58 869 b 58 578 58 785 60 628 b 132 519 57 529 61 519 b 351 456 228 519 307 501 b 399 229 407 397 414 313 b 249 225 381 126 286 63 z "},"6":{"ha":749,"x_min":0,"x_max":0,"o":"m 333 575 b 451 911 378 754 390 760 b 424 964 460 932 490 957 b 257 919 324 974 281 965 b 69 189 151 714 40 406 b 432 1 94 18 260 -4 b 617 49 500 4 568 13 b 675 443 726 132 742 318 b 333 575 610 567 468 583 z m 292 349 b 415 428 303 399 360 429 b 399 114 592 421 564 119 b 292 349 261 101 268 249 z "},"7":{"ha":582,"x_min":0,"x_max":0,"o":"m 153 201 b 131 47 147 150 140 99 b 168 6 126 25 128 8 b 297 8 211 3 253 1 b 328 29 310 11 326 11 b 351 199 333 86 342 143 b 392 415 364 271 378 343 b 483 785 419 536 450 669 b 531 922 499 831 517 876 b 511 967 536 939 557 963 b 292 972 440 975 367 972 b 100 971 228 972 164 971 b 49 944 72 971 51 968 b 47 871 43 919 43 896 b 108 831 49 842 60 828 b 301 832 172 835 239 832 b 153 201 239 631 194 406 z "},"8":{"ha":672,"x_min":0,"x_max":0,"o":"m 208 515 b 143 60 111 375 -11 189 b 319 3 189 22 251 7 b 601 206 536 -10 610 106 b 431 489 593 306 518 413 b 607 796 493 554 600 675 b 399 979 611 899 510 972 b 92 738 199 992 58 906 b 208 515 108 657 167 589 z m 314 389 b 367 119 390 374 449 124 b 314 389 292 115 249 401 z m 301 735 b 392 728 301 899 419 893 b 301 735 369 604 286 585 z "},"9":{"ha":708,"x_min":0,"x_max":0,"o":"m 419 294 b 418 61 418 217 417 139 b 464 0 418 36 406 3 b 567 -1 497 -1 531 -4 b 617 11 581 0 608 0 b 618 24 618 15 618 19 b 625 354 614 133 622 244 b 661 883 632 547 633 718 b 656 926 665 899 665 914 b 368 982 593 989 449 986 b 49 711 176 968 58 869 b 425 369 31 529 93 335 b 419 286 422 296 422 361 z m 333 521 b 226 663 278 514 218 568 b 360 858 235 790 301 854 b 333 521 497 867 447 536 z "},"\u0000":{"ha":0,"x_min":0,"x_max":0,"o":""},"\r":{"ha":486,"x_min":0,"x_max":0,"o":""}," ":{"ha":486,"x_min":0,"x_max":0,"o":""},"~":{"ha":999,"x_min":0,"x_max":0,"o":"m 782 543 b 711 467 767 524 742 492 b 517 492 636 404 582 440 b 100 436 378 603 190 553 b 128 350 72 401 76 354 b 215 378 178 347 199 343 b 375 447 251 456 314 471 b 651 342 482 406 494 333 b 876 469 751 347 826 410 b 892 533 899 493 903 524 b 782 543 868 550 803 569 z "},"¤":{"ha":807,"x_min":0,"x_max":0,"o":"m 390 894 b 318 883 364 892 340 889 l 297 943 b 275 958 293 950 286 956 b 101 957 218 971 160 969 b 90 944 93 956 85 953 l 158 783 b 143 183 44 626 57 314 b 193 132 157 163 174 144 l 164 51 b 190 1 156 32 131 6 b 225 -1 201 0 214 -1 b 368 60 331 -6 353 7 l 374 82 l 407 82 b 503 88 443 82 475 83 b 511 71 506 82 508 75 b 572 10 525 44 533 14 b 665 6 601 6 633 4 b 714 8 682 6 699 7 b 749 18 724 10 744 10 b 744 28 750 21 747 25 b 657 179 714 75 685 126 b 681 219 665 192 674 204 b 649 801 750 378 767 653 l 714 925 b 685 960 725 950 719 957 b 578 961 650 963 614 964 b 519 947 558 960 528 963 b 493 886 510 929 501 908 b 390 894 460 893 425 896 z m 282 292 b 317 738 243 446 249 636 b 503 736 372 822 468 826 b 524 300 542 646 550 424 b 282 292 482 126 317 165 z "},"`":{"ha":532,"x_min":0,"x_max":0,"o":"m 78 940 b 86 935 82 939 85 938 b 364 774 178 882 268 829 b 393 778 378 764 393 776 b 440 847 418 796 447 832 b 433 856 440 849 436 853 b 161 1021 343 911 251 967 b 136 1022 151 1026 144 1028 b 78 940 122 1013 60 951 z "},"?":{"ha":682,"x_min":0,"x_max":0,"o":"m 249 300 b 294 225 249 256 233 228 b 399 225 328 224 361 224 b 444 296 458 225 444 258 l 444 389 b 581 689 444 493 539 603 b 578 894 614 757 611 856 b 122 876 472 1017 207 997 b 75 639 82 819 65 739 b 101 594 78 614 86 597 b 251 596 151 588 201 588 b 275 736 289 601 268 674 b 415 774 289 856 403 860 b 382 667 419 733 401 701 b 249 300 318 560 235 500 z m 457 58 b 349 164 474 158 374 164 b 281 150 325 164 301 160 b 260 26 232 131 224 65 b 353 -3 289 -3 319 -3 l 376 -3 b 457 58 414 0 451 10 z "},"_":{"ha":701,"x_min":0,"x_max":0,"o":"m 626 101 b 615 101 622 101 618 101 b 90 101 503 101 206 101 b 67 83 69 101 67 85 b 76 4 60 57 61 14 b 89 1 78 3 83 1 b 614 -4 200 -1 501 -3 b 635 7 625 -4 632 -1 b 626 101 640 22 649 101 z "},"]":{"ha":551,"x_min":0,"x_max":0,"o":"m 124 890 b 256 886 165 888 226 889 b 239 104 242 589 292 397 b 94 101 214 103 119 110 b 92 8 64 90 69 11 b 344 8 161 -3 275 1 b 417 154 433 17 414 75 b 428 906 425 399 424 638 b 407 981 428 929 461 979 b 107 978 319 983 200 992 b 124 890 82 975 64 897 z "},"\\":{"ha":769,"x_min":0,"x_max":0,"o":"m 731 39 b 211 968 565 342 353 682 b 68 964 190 1010 114 971 b 53 958 64 963 58 961 b 57 921 44 954 49 939 b 578 -4 200 613 419 282 b 600 -22 582 -12 589 -19 b 731 38 624 -26 757 13 z "},"[":{"ha":506,"x_min":0,"x_max":0,"o":"m 401 93 b 269 97 360 96 299 94 b 286 879 283 394 275 636 b 431 882 311 881 406 874 b 433 975 461 893 456 972 b 181 975 364 986 250 982 b 108 829 92 967 111 908 b 97 78 100 585 101 346 b 118 3 97 54 64 4 b 407 11 206 0 314 -3 b 401 93 432 14 461 86 z "},"Z":{"ha":593,"x_min":0,"x_max":0,"o":"m 81 194 b 43 99 68 163 57 131 b 90 6 8 11 -6 6 b 181 6 119 6 150 6 b 540 6 274 6 447 6 b 547 17 540 6 544 11 b 547 121 558 51 558 86 b 517 139 542 132 535 139 b 468 139 500 139 485 139 b 250 139 422 139 299 139 b 567 917 344 404 456 661 b 533 974 590 965 586 972 b 97 976 419 978 210 974 b 25 949 65 978 28 986 b 18 850 22 926 11 872 b 53 811 22 835 14 811 b 339 817 115 811 274 817 b 81 194 239 596 150 397 z "},"Y":{"ha":642,"x_min":0,"x_max":0,"o":"m 364 18 b 424 256 372 53 411 211 b 497 521 449 344 472 433 b 549 700 511 581 531 640 b 619 929 572 776 599 853 b 608 974 624 943 651 965 b 458 975 558 982 508 982 b 426 964 447 974 431 974 b 381 814 410 914 397 864 b 333 669 367 767 350 719 b 281 796 317 713 299 754 b 200 965 269 818 218 961 b 18 965 140 981 78 979 b 10 950 8 963 7 957 b 228 467 124 700 174 582 b 174 50 285 344 200 172 b 197 6 169 33 153 13 b 286 0 226 1 257 0 b 328 3 300 0 314 1 b 364 18 360 3 364 3 z "},"X":{"ha":701,"x_min":0,"x_max":0,"o":"m 510 10 b 603 6 540 6 572 4 b 651 8 619 6 636 7 b 686 18 661 10 683 10 b 683 28 689 21 685 25 b 465 431 603 151 542 297 b 456 468 458 443 451 457 b 651 925 475 608 586 794 b 624 960 664 950 658 957 b 517 961 589 963 551 964 b 458 947 497 960 467 963 b 350 603 411 858 382 689 b 235 943 303 719 278 833 b 214 958 232 950 225 956 b 40 957 157 971 99 969 b 28 944 32 956 24 953 b 239 476 90 799 160 638 b 249 443 243 465 251 453 b 101 51 203 307 149 181 b 128 1 93 32 68 6 b 164 -1 140 0 151 -1 b 307 60 268 -6 292 7 b 364 318 319 113 343 265 b 450 71 392 269 424 119 b 510 10 464 44 472 14 z "},"W":{"ha":997,"x_min":0,"x_max":0,"o":"m 332 347 b 272 761 297 546 281 706 b 247 919 264 814 258 867 b 201 974 242 940 251 969 b 76 974 160 978 118 979 b 47 917 18 969 39 958 b 60 843 51 892 57 867 b 92 631 72 772 82 701 b 133 351 107 538 118 444 b 197 56 151 253 168 154 b 240 4 201 36 193 10 b 378 6 286 0 332 -1 b 414 19 392 7 410 7 b 511 497 444 140 474 379 b 622 64 550 386 585 165 b 668 15 631 44 626 19 b 793 14 710 11 751 8 b 842 31 811 17 840 14 b 967 926 874 339 885 640 b 939 954 969 944 961 951 b 807 956 893 960 850 961 b 761 943 790 954 764 956 b 686 353 733 763 701 565 b 607 769 667 411 625 714 b 510 807 590 817 557 807 b 440 783 468 807 450 807 b 332 347 408 715 351 421 z "},"V":{"ha":697,"x_min":0,"x_max":0,"o":"m 317 492 b 276 721 301 568 290 644 b 239 921 264 788 251 854 b 207 968 233 938 249 963 b 61 969 158 975 110 976 b 39 919 19 964 35 947 b 57 831 43 890 50 860 b 86 668 67 776 76 722 b 108 535 93 624 100 579 b 140 385 118 485 128 435 b 178 235 151 335 164 285 b 226 82 192 183 207 132 b 300 4 239 53 232 11 b 432 6 343 0 389 0 b 476 31 453 8 469 15 b 536 254 503 104 518 179 b 581 467 551 325 567 396 b 624 725 597 553 610 639 b 653 904 633 785 643 844 b 617 981 667 967 685 975 b 531 982 589 983 558 983 b 451 933 483 981 457 971 b 417 717 443 861 428 789 b 376 483 401 639 390 561 b 350 338 368 438 360 392 b 318 490 339 394 326 442 z "},"U":{"ha":792,"x_min":0,"x_max":0,"o":"m 292 339 b 286 942 292 596 290 769 b 264 958 286 949 281 956 b 103 958 211 968 158 968 b 81 943 92 957 81 954 b 81 881 81 922 81 901 b 85 340 81 663 76 503 b 378 -6 93 153 114 7 b 719 392 700 -21 717 185 b 722 575 722 453 722 514 b 718 796 722 649 719 722 b 711 935 717 838 711 893 b 668 974 711 957 703 971 b 549 972 628 976 589 978 b 510 946 528 969 508 968 b 518 324 518 726 526 518 b 292 339 507 47 276 89 z "},"S":{"ha":653,"x_min":0,"x_max":0,"o":"m 417 644 b 550 640 461 636 506 636 b 600 654 567 642 594 640 b 607 799 608 693 617 732 b 353 972 590 925 482 972 b 53 861 183 972 82 933 b 233 514 6 742 157 597 b 378 307 297 450 343 381 b 414 185 394 267 414 226 b 261 178 414 69 269 72 b 258 297 258 222 256 269 b 222 325 260 319 243 322 b 94 325 181 331 139 331 b 53 301 75 322 56 321 b 81 88 47 218 56 135 b 336 4 118 14 200 4 b 549 369 626 4 661 175 b 260 757 485 475 314 629 b 394 751 215 871 394 907 b 393 685 394 721 393 696 b 417 644 394 663 399 647 z "},"R":{"ha":714,"x_min":0,"x_max":0,"o":"m 667 544 b 126 965 707 868 469 1028 b 101 947 114 963 101 961 b 93 53 97 629 93 342 l 93 42 b 119 22 93 32 107 24 b 276 22 164 19 231 15 b 301 33 286 24 301 25 b 301 92 303 53 301 72 l 301 178 b 390 231 326 192 357 210 b 514 10 528 189 464 11 b 599 6 542 8 569 6 b 642 10 611 6 628 7 b 669 28 667 14 669 17 b 524 328 668 124 681 279 b 667 544 594 389 656 461 z m 293 335 b 303 838 289 347 297 771 b 293 336 494 806 553 457 z "},"Q":{"ha":782,"x_min":0,"x_max":0,"o":"m 733 351 b 608 921 769 551 760 789 b 240 933 531 989 317 985 b 218 33 0 774 -33 193 b 540 24 283 -8 457 -14 b 585 51 557 31 572 40 b 631 -36 593 17 603 -22 b 768 -47 661 -54 726 -49 b 790 -31 783 -47 797 -42 b 674 168 761 18 701 117 b 733 351 706 232 725 303 z m 518 303 b 428 268 469 304 397 321 b 494 175 439 251 458 225 b 303 176 442 107 367 79 b 281 700 219 303 207 535 b 528 692 360 881 469 881 b 522 304 567 567 558 410 z "},"P":{"ha":701,"x_min":0,"x_max":0,"o":"m 668 564 b 632 751 674 628 660 690 b 158 972 558 918 349 992 b 90 942 131 969 92 968 b 86 721 86 876 86 786 b 89 46 86 463 89 254 b 122 3 89 24 89 6 b 250 3 167 -1 208 -3 b 289 15 264 4 286 3 b 290 72 292 33 290 53 b 290 142 290 115 290 97 b 668 564 518 178 651 381 z m 289 811 b 290 304 578 806 524 331 b 289 811 290 507 290 551 z "},"}":{"ha":558,"x_min":0,"x_max":0,"o":"m 510 506 b 461 547 514 524 482 531 b 417 631 436 569 419 603 b 372 932 403 711 410 854 b 314 994 360 956 340 978 b 93 1025 258 1028 168 1049 b 110 950 56 1014 76 950 b 231 871 178 950 210 926 b 264 594 253 789 250 678 b 308 504 272 554 293 538 b 264 415 293 471 272 454 b 231 139 250 332 253 221 b 110 60 210 83 178 60 b 93 -15 76 60 56 -4 b 314 15 168 -39 258 -18 b 372 78 340 32 360 54 b 417 379 410 156 403 299 b 461 463 419 407 436 440 b 510 504 482 479 514 486 z "},"|":{"ha":378,"x_min":0,"x_max":0,"o":"m 290 949 b 199 983 290 986 228 983 b 110 978 168 983 140 982 b 83 957 93 975 83 969 b 97 43 97 636 97 194 b 97 -35 97 21 97 -4 b 124 -56 97 -47 107 -53 b 211 -61 153 -60 182 -61 b 303 -26 242 -61 303 -64 l 303 22 l 301 22 b 290 949 293 218 289 675 z "},"{":{"ha":558,"x_min":0,"x_max":0,"o":"m 64 504 b 111 463 60 486 92 479 b 157 379 136 440 153 407 b 201 78 169 299 164 156 b 260 15 214 54 233 32 b 481 -15 315 -18 406 -39 b 464 60 518 -4 497 60 b 343 139 394 60 364 83 b 310 415 319 221 324 332 b 265 504 301 454 281 471 b 310 594 281 538 301 554 b 343 871 324 678 319 789 b 464 950 364 926 394 950 b 481 1025 497 950 518 1014 b 260 994 406 1049 315 1028 b 201 932 233 978 214 956 b 157 631 164 854 169 711 b 111 547 153 603 136 569 b 64 506 92 531 60 524 z "},"z":{"ha":593,"x_min":0,"x_max":0,"o":"m 81 194 b 43 99 68 163 57 131 b 90 6 8 11 -6 6 b 181 6 119 6 150 6 b 540 6 274 6 447 6 b 547 17 540 6 544 11 b 547 121 558 51 558 86 b 517 139 542 132 535 139 b 468 139 500 139 485 139 b 250 139 422 139 299 139 b 567 917 344 404 456 661 b 533 974 590 965 586 972 b 97 976 419 978 210 974 b 25 949 65 978 28 986 b 18 850 22 926 11 872 b 53 811 22 835 14 811 b 339 817 115 811 274 817 b 81 194 239 596 150 397 z "},"y":{"ha":642,"x_min":0,"x_max":0,"o":"m 364 18 b 424 256 372 53 411 211 b 497 521 449 344 472 433 b 549 700 511 581 531 640 b 619 929 572 776 599 853 b 608 974 624 943 651 965 b 458 975 558 982 508 982 b 426 964 447 974 431 974 b 381 814 410 914 397 864 b 333 669 367 767 350 719 b 281 796 317 713 299 754 b 200 965 269 818 218 961 b 18 965 140 981 78 979 b 10 950 8 963 7 957 b 228 467 124 700 174 582 b 174 50 285 344 200 172 b 197 6 169 33 153 13 b 286 0 226 1 257 0 b 328 3 300 0 314 1 b 364 18 360 3 364 3 z "},"!":{"ha":418,"x_min":0,"x_max":0,"o":"m 100 932 b 108 300 101 665 101 517 b 156 225 108 256 93 228 b 258 225 189 224 222 224 b 306 296 318 225 306 258 b 306 939 306 533 306 699 b 256 974 306 967 301 969 b 118 968 208 978 160 978 b 100 932 86 963 100 944 z m 317 58 b 208 164 333 158 233 164 b 140 150 185 164 161 160 b 119 26 92 131 83 65 b 214 -3 149 -3 181 -3 b 236 -3 222 -3 231 -3 b 317 58 274 0 311 10 z "},"\"":{"ha":481,"x_min":0,"x_max":0,"o":"m 126 931 b 108 914 111 929 107 924 b 103 747 117 881 142 793 b 203 726 85 725 161 715 b 201 932 258 743 247 925 b 126 931 178 935 151 933 z m 283 931 b 265 914 268 929 264 924 b 260 747 274 881 299 793 b 360 726 242 725 318 715 b 358 932 415 743 403 925 b 283 931 335 935 308 933 z "},"#":{"ha":1406,"x_min":0,"x_max":0,"o":"m 1003 654 b 1151 951 1044 743 1110 864 b 1125 992 1168 985 1172 989 b 1014 992 1090 996 1043 996 b 976 965 985 988 989 985 b 824 654 933 874 867 747 b 635 654 761 654 700 654 b 769 943 639 676 728 868 b 772 985 778 960 801 979 b 624 985 722 992 674 992 b 594 953 606 979 600 967 b 514 785 568 896 542 840 b 451 649 493 740 474 696 b 264 649 389 649 326 650 b 181 642 235 649 193 658 b 176 551 157 614 160 581 b 192 547 176 550 186 547 b 407 553 264 556 333 549 b 372 461 393 522 383 493 b 235 461 326 461 281 461 b 114 379 108 460 92 449 b 124 357 115 371 115 363 b 332 363 193 360 264 361 b 332 357 332 361 333 360 b 222 32 301 267 257 114 b 219 18 219 28 218 22 b 393 11 232 -8 372 -11 b 410 38 406 19 407 29 b 518 364 435 147 482 254 b 708 364 585 364 647 364 b 708 360 708 363 708 361 b 614 19 667 250 610 28 b 724 -1 622 -8 690 -4 b 789 8 742 0 774 1 b 892 367 807 18 878 367 b 1261 367 1015 367 1136 367 b 1272 451 1282 394 1278 422 b 1250 468 1267 458 1267 468 b 1165 467 1222 468 1193 467 b 931 467 1089 467 1008 467 b 964 550 942 494 951 522 b 1217 550 1050 550 1133 551 b 1328 588 1315 549 1322 550 b 1282 649 1335 633 1332 646 b 1003 654 1189 658 1097 654 z m 747 461 b 560 461 685 461 622 461 b 593 547 572 489 581 518 b 781 547 657 547 718 547 b 747 461 772 519 758 492 z "},"$":{"ha":717,"x_min":0,"x_max":0,"o":"m 449 636 b 583 632 493 629 539 629 b 635 644 600 633 631 632 b 642 776 643 681 651 715 b 433 931 625 875 540 921 l 433 989 b 368 1017 435 1015 390 1017 b 294 989 343 1018 290 1015 l 294 929 b 81 833 175 919 103 886 b 264 518 32 725 185 593 b 410 331 326 460 375 397 b 444 219 426 293 444 257 b 292 213 444 115 300 117 b 289 321 289 253 285 296 b 251 346 290 342 274 344 b 124 346 208 351 167 351 b 81 325 103 344 82 343 b 108 131 74 250 82 174 b 294 56 139 76 199 60 l 294 15 b 368 -12 290 -11 343 -14 b 433 15 390 -12 435 -11 l 433 58 b 582 388 665 81 686 225 b 290 739 518 482 343 622 b 426 733 244 842 426 874 b 425 672 426 706 425 683 b 449 636 426 653 431 639 z "},"%":{"ha":903,"x_min":0,"x_max":0,"o":"m 778 961 b 764 967 774 964 768 965 b 608 942 718 974 626 985 b 399 567 553 814 469 690 b 261 329 351 488 307 408 b 101 42 208 233 157 138 b 176 4 82 7 132 3 b 218 6 192 4 208 6 b 242 7 226 6 233 6 b 264 25 253 10 260 17 b 317 125 282 58 299 92 b 451 367 360 206 407 286 b 533 507 478 414 507 460 b 667 733 578 582 622 657 b 732 850 689 772 710 811 b 778 963 742 867 800 950 z m 68 779 b 110 631 67 728 76 675 b 167 592 124 614 139 597 b 365 626 231 575 326 575 b 417 793 406 679 418 736 b 403 865 415 817 411 840 b 243 975 383 928 347 975 b 68 779 94 972 69 853 z m 207 706 b 206 840 190 744 190 797 b 278 840 224 890 261 889 b 272 707 293 797 292 744 b 207 706 257 672 224 669 z m 483 207 b 525 58 482 156 492 103 b 582 19 539 42 553 25 b 781 54 644 3 742 3 b 832 221 819 107 833 164 b 818 293 831 244 826 268 b 658 403 799 356 761 403 b 483 207 510 400 485 281 z m 622 133 b 619 268 606 172 606 225 b 693 268 639 318 676 317 b 686 135 708 225 707 172 b 622 133 672 100 639 97 z "},"&":{"ha":810,"x_min":0,"x_max":0,"o":"m 744 256 b 699 342 774 274 735 329 b 608 324 658 356 636 344 b 532 258 572 296 543 274 b 419 401 499 306 440 354 b 425 444 414 417 410 424 b 619 760 499 547 578 647 b 368 972 675 915 525 988 b 118 756 228 958 135 892 b 210 461 106 653 160 558 b 294 -3 90 332 -108 -6 b 510 61 374 -3 444 17 b 568 -1 540 32 551 10 b 699 -12 590 -17 650 -18 b 722 31 724 -10 743 -6 l 618 150 z m 442 751 b 328 556 417 681 364 610 b 292 757 290 601 282 682 b 442 751 311 915 486 853 z m 283 307 b 394 174 324 260 361 218 b 283 307 225 56 214 217 z "},"'":{"ha":328,"x_min":0,"x_max":0,"o":"m 125 931 b 107 914 110 929 106 924 b 101 747 115 881 140 793 b 201 726 83 725 160 715 b 200 932 257 743 244 925 b 125 931 176 935 150 933 z "},"(":{"ha":489,"x_min":0,"x_max":0,"o":"m 342 999 b 281 997 319 1000 300 999 b 233 985 264 996 242 997 b 197 921 217 965 207 943 b 108 333 111 732 90 528 b 199 54 115 236 147 133 b 267 -1 217 25 240 1 b 381 1 306 -4 342 -4 b 382 42 414 6 393 24 b 375 928 219 339 257 631 b 342 999 399 985 425 999 z "},")":{"ha":489,"x_min":0,"x_max":0,"o":"m 165 999 b 132 928 82 999 108 985 b 125 42 250 631 286 339 b 126 1 114 24 93 6 b 240 -1 165 -4 201 -4 b 308 54 267 1 290 25 b 399 333 360 133 392 236 b 310 921 417 528 394 732 b 274 985 300 943 290 965 b 226 997 265 997 243 996 b 165 999 207 999 186 1000 z "},"*":{"ha":624,"x_min":0,"x_max":0,"o":"m 161 928 b 111 872 142 938 115 883 b 125 856 110 864 115 860 l 203 818 l 128 782 b 117 760 110 774 115 761 b 160 714 122 740 142 715 b 169 718 161 715 167 715 b 251 756 194 729 224 742 l 251 678 b 274 658 251 661 272 658 b 368 667 306 653 357 654 b 372 676 369 668 372 672 b 374 740 372 697 374 718 b 439 711 394 731 417 719 b 449 707 442 708 447 708 b 492 753 467 708 486 733 b 481 775 493 754 499 767 l 389 819 l 490 867 b 503 883 500 871 506 875 b 453 939 500 894 474 949 l 443 935 l 376 903 b 378 957 376 921 378 939 b 365 975 378 967 375 972 b 251 968 347 979 251 986 l 251 885 b 172 924 224 897 197 911 z "},"+":{"ha":532,"x_min":0,"x_max":0,"o":"m 197 561 l 197 465 l 90 465 b 67 447 69 465 67 449 b 76 368 60 421 61 378 b 89 365 78 367 83 365 b 197 363 124 364 160 363 l 197 271 b 218 251 197 254 217 251 b 314 260 250 246 301 247 b 317 269 315 261 317 265 b 319 361 317 300 318 331 b 425 360 356 360 390 360 b 447 371 436 360 443 363 b 439 465 451 386 460 465 l 322 465 b 324 550 322 493 322 521 b 310 568 324 560 319 565 b 197 561 292 572 197 579 z "},",":{"ha":403,"x_min":0,"x_max":0,"o":"m 167 110 b 132 96 151 108 133 106 b 133 3 126 63 132 39 b 164 -15 133 -4 164 -8 b 143 -74 161 -37 157 -58 b 243 -94 125 -96 201 -106 b 256 110 299 -78 300 103 b 167 110 232 113 192 113 z "},"-":{"ha":532,"x_min":0,"x_max":0,"o":"m 439 465 b 426 465 433 465 431 465 b 90 465 315 465 206 465 b 67 447 69 465 67 449 b 76 368 60 421 61 378 b 89 365 78 367 83 365 b 425 360 200 363 314 361 b 447 371 436 360 443 363 b 439 465 451 386 460 465 z "},".":{"ha":381,"x_min":0,"x_max":0,"o":"m 292 44 b 194 126 307 122 217 126 b 133 115 174 126 153 124 b 117 19 90 101 83 50 b 200 -3 142 -3 169 -3 b 219 -3 207 -3 215 -3 b 292 44 253 0 286 7 z "},"/":{"ha":883,"x_min":0,"x_max":0,"o":"m 778 961 b 764 967 774 964 768 965 b 608 942 718 974 626 985 b 399 567 553 814 469 690 b 261 329 351 488 307 408 b 101 42 208 233 157 138 b 176 4 82 7 132 3 b 218 6 192 4 208 6 b 242 7 226 6 233 6 b 264 25 253 10 260 17 b 317 125 282 58 299 92 b 451 367 360 206 407 286 b 533 507 478 414 507 460 b 667 733 578 582 622 657 b 732 850 689 772 710 811 b 778 963 742 867 800 950 z "},";":{"ha":400,"x_min":0,"x_max":0,"o":"m 167 110 b 132 96 151 108 133 106 b 133 3 126 63 132 39 b 164 -15 133 -4 164 -8 b 143 -74 161 -37 157 -58 b 243 -94 125 -96 201 -106 b 256 110 299 -78 300 103 b 167 110 232 113 192 113 z m 293 374 b 197 456 308 451 218 456 b 135 444 175 456 156 453 b 118 349 92 431 85 379 b 201 326 143 326 172 326 b 222 326 208 326 217 326 b 293 374 256 329 289 336 z "},"<":{"ha":785,"x_min":0,"x_max":0,"o":"m 574 86 b 674 182 600 69 665 160 b 656 211 676 194 668 201 b 317 414 543 278 431 347 l 656 618 b 674 647 668 628 676 635 b 574 743 665 669 600 760 l 557 732 b 114 456 410 640 265 551 b 114 374 83 438 90 388 b 557 97 265 278 410 189 z "},"=":{"ha":499,"x_min":0,"x_max":0,"o":"m 439 532 b 426 532 433 532 431 532 b 90 532 315 532 206 532 b 67 514 69 532 67 515 b 76 435 60 488 61 444 b 89 432 78 433 83 432 b 425 426 200 429 314 428 b 447 438 436 426 443 429 b 439 532 451 453 460 532 z m 439 389 b 426 389 433 389 431 389 b 90 389 315 389 206 389 b 67 371 69 389 67 372 b 76 292 60 344 61 301 b 89 289 78 290 83 289 b 425 283 200 286 314 285 b 447 294 436 283 443 286 b 439 389 451 310 460 389 z "},">":{"ha":785,"x_min":0,"x_max":0,"o":"m 203 97 b 647 374 350 189 494 278 b 647 456 669 388 676 438 b 203 732 494 551 350 640 l 186 743 b 86 647 160 760 94 669 b 106 618 83 635 92 628 l 443 414 b 106 211 331 347 217 278 b 86 182 92 201 83 194 b 186 86 94 160 160 69 z "},"¢":{"ha":699,"x_min":0,"x_max":0,"o":"m 464 642 b 590 642 507 639 549 638 b 626 654 606 643 625 642 b 618 783 628 675 625 764 b 544 850 607 810 590 836 b 475 863 522 856 499 860 l 475 939 b 383 974 475 976 414 974 b 294 968 353 974 325 972 b 268 947 278 965 268 960 l 269 858 b 194 833 240 853 211 844 b 57 356 44 735 33 482 b 106 211 64 307 76 258 b 282 108 142 144 203 118 l 282 17 b 308 -4 282 4 292 -1 b 397 -10 339 -8 367 -10 b 489 25 426 -10 489 -12 l 489 74 l 486 74 l 485 113 b 597 165 532 121 569 138 b 643 283 615 182 647 244 b 614 313 642 300 632 313 b 499 314 574 315 536 317 b 444 282 464 313 450 303 b 264 300 410 131 292 199 b 244 469 250 356 240 413 b 390 768 249 515 265 782 b 422 721 406 767 417 751 b 464 642 431 679 432 644 z "},"€":{"ha":731,"x_min":0,"x_max":0,"o":"m 428 454 l 297 454 b 299 461 297 456 299 458 b 300 493 299 468 299 479 b 415 492 339 492 376 492 b 436 503 426 492 433 494 b 428 597 442 518 450 597 l 311 597 b 449 839 328 711 365 850 b 482 779 464 838 475 819 b 524 681 490 728 492 683 b 656 681 568 676 611 675 b 693 696 669 682 692 681 b 683 860 694 722 692 835 b 608 943 672 893 656 926 b 392 964 540 967 465 968 b 247 922 343 961 278 949 b 101 597 160 853 118 725 l 81 597 b 57 579 60 597 57 581 b 67 500 50 553 51 510 b 78 497 68 499 74 497 b 94 496 83 497 89 496 b 93 454 93 482 93 468 l 81 454 b 57 436 60 454 57 438 b 67 357 50 410 51 367 b 78 354 68 356 74 354 b 99 353 85 354 92 353 l 103 318 b 153 135 111 256 125 194 b 474 1 214 8 326 -4 b 661 76 553 4 619 25 b 710 226 681 99 714 178 b 678 264 708 247 699 263 b 560 265 639 267 600 268 b 506 225 524 263 510 251 b 318 247 468 33 347 118 b 300 350 310 281 306 315 b 415 349 339 349 376 349 b 436 360 426 349 433 351 b 428 454 442 375 450 454 z "},"¥":{"ha":642,"x_min":0,"x_max":0,"o":"m 364 18 b 424 256 372 53 411 211 b 497 521 449 344 472 433 b 549 700 511 581 531 640 b 619 929 572 776 599 853 b 608 974 624 943 651 965 b 458 975 558 982 508 982 b 426 964 447 974 431 974 b 381 814 410 914 397 864 b 333 669 367 767 350 719 b 281 796 317 713 299 754 b 200 965 269 818 218 961 b 18 965 140 981 78 979 b 10 950 8 963 7 957 b 228 467 124 700 174 582 b 174 50 285 344 200 172 b 197 6 169 33 153 13 b 286 0 226 1 257 0 b 328 3 300 0 314 1 b 364 18 360 3 364 3 z "},"×":{"ha":532,"x_min":0,"x_max":0,"o":"m 342 556 l 260 488 l 185 550 b 153 551 169 561 153 551 b 93 489 125 536 90 504 b 99 481 93 488 94 483 b 174 414 122 458 147 436 l 94 350 b 93 324 82 338 93 324 b 168 274 111 300 150 271 b 178 278 169 274 175 275 b 258 340 206 300 232 321 b 332 278 282 319 307 299 b 357 274 340 271 347 269 b 432 344 374 281 447 332 l 349 414 b 422 472 372 433 394 453 b 426 493 431 479 432 485 b 342 556 418 507 357 568 z "},"÷":{"ha":669,"x_min":0,"x_max":0,"o":"m 608 465 b 597 465 603 465 600 465 b 75 465 485 465 190 465 b 51 447 56 465 51 449 b 61 368 44 421 47 378 b 74 365 64 367 68 365 b 594 360 185 363 483 361 b 617 371 607 360 614 363 b 608 465 622 386 631 465 z m 440 546 b 343 628 456 624 365 628 b 282 617 322 628 301 625 b 265 521 239 603 232 551 b 349 499 290 499 318 499 b 368 499 356 499 364 499 b 440 546 401 501 435 508 z m 440 221 b 343 303 456 299 365 303 b 282 292 322 303 301 300 b 265 196 239 278 232 226 b 349 174 290 174 318 174 b 368 174 356 174 364 174 b 440 221 401 176 435 183 z "},"O":{"ha":789,"x_min":0,"x_max":0,"o":"m 51 475 b 133 117 49 353 68 222 b 243 21 158 78 186 38 b 626 107 364 -15 550 -17 b 726 507 703 235 731 371 b 701 683 724 567 717 625 b 392 947 664 833 590 947 b 51 475 106 940 56 651 z m 289 208 b 282 694 240 347 235 542 b 497 696 333 874 447 869 b 476 213 540 543 531 351 b 289 208 432 88 335 82 z "},"N":{"ha":817,"x_min":0,"x_max":0,"o":"m 333 897 b 310 939 325 911 322 926 b 272 957 301 947 292 954 b 140 958 228 963 183 964 b 97 942 124 957 99 958 b 97 183 78 699 90 438 b 101 51 99 142 99 93 b 136 3 103 33 86 7 b 274 4 182 -1 228 -3 b 307 17 286 6 307 6 b 301 86 308 39 303 63 b 293 276 300 147 297 215 b 289 501 292 351 290 426 b 289 621 289 542 289 582 b 286 622 286 622 286 622 b 447 239 357 478 400 358 b 501 56 467 183 486 111 b 582 1 511 24 528 0 b 672 1 611 1 642 1 b 728 43 710 3 731 14 b 719 247 724 106 722 185 b 718 456 718 317 718 386 b 718 681 718 531 718 606 b 722 781 718 714 719 747 b 726 910 724 824 726 867 b 699 953 726 926 740 949 b 549 951 649 958 599 960 b 524 938 536 950 524 949 b 519 821 524 899 522 860 b 539 386 517 729 539 474 b 333 897 482 506 406 790 z "},"M":{"ha":947,"x_min":0,"x_max":0,"o":"m 681 51 b 715 6 682 32 674 10 b 853 6 761 0 807 -1 b 881 68 897 11 883 38 b 839 713 861 307 844 510 b 832 881 836 768 836 825 b 782 944 831 906 849 942 b 733 947 767 944 750 949 b 614 917 692 943 639 960 b 508 710 574 849 540 779 b 468 626 497 682 482 656 b 417 738 450 665 432 701 b 353 888 393 788 376 838 b 293 946 343 911 347 942 b 161 946 250 950 207 951 b 97 918 142 943 99 939 b 82 411 89 743 86 578 b 78 224 81 349 78 286 b 81 32 78 160 81 96 b 114 -6 81 14 78 -3 b 247 -6 158 -10 201 -11 b 282 8 260 -4 281 -6 b 281 54 283 24 281 39 b 282 258 281 122 281 190 b 289 563 285 371 289 467 b 393 214 317 513 374 306 b 482 151 410 139 410 154 b 561 213 565 149 550 154 b 642 553 582 318 608 449 b 681 51 656 386 667 210 z "},"L":{"ha":601,"x_min":0,"x_max":0,"o":"m 199 983 b 110 978 168 983 140 982 b 83 957 93 975 83 969 b 83 799 83 904 83 851 b 86 644 83 747 83 696 b 93 415 89 568 92 492 b 100 232 97 354 99 293 b 110 49 101 171 107 110 b 176 -1 111 14 132 -1 b 524 -1 292 -1 408 -3 b 608 31 558 -1 607 -14 b 607 110 610 57 614 83 b 586 136 603 119 603 135 b 489 136 553 139 519 136 b 308 136 428 136 368 136 b 290 949 297 404 285 674 b 199 983 290 986 228 983 z "},"K":{"ha":719,"x_min":0,"x_max":0,"o":"m 483 524 l 553 644 b 624 765 578 685 601 725 b 703 913 651 814 676 864 b 676 953 717 935 718 949 b 550 953 633 957 592 958 b 507 932 532 950 514 949 b 457 835 492 899 474 867 b 364 672 426 781 397 726 b 292 549 340 631 317 589 b 292 939 289 767 292 857 b 269 969 292 951 299 965 b 108 969 215 978 161 979 b 89 958 100 968 89 967 l 86 838 b 100 54 100 358 108 197 b 115 0 99 35 86 10 b 192 -3 135 -7 169 -1 b 292 4 226 -4 260 -1 b 310 17 300 6 310 8 b 303 83 308 39 307 61 l 299 194 l 358 303 b 494 19 397 199 450 60 b 651 3 511 3 594 -3 b 685 57 706 6 701 21 b 469 500 647 142 528 340 z "},"J":{"ha":674,"x_min":0,"x_max":0,"o":"m 214 231 b 210 347 208 276 208 319 b 192 381 210 360 222 375 b 72 385 151 388 111 389 b 11 368 50 383 17 386 b 22 128 0 321 1 175 b 126 26 40 86 68 49 b 324 4 189 3 257 1 b 539 374 568 17 532 235 b 543 853 549 540 543 697 b 581 853 560 853 569 853 b 639 876 607 853 633 847 b 636 969 643 908 647 939 b 610 993 632 979 632 993 b 151 992 517 993 244 993 b 85 968 125 992 92 1000 b 83 878 81 938 81 908 b 136 851 86 853 107 849 b 340 853 144 853 331 853 b 342 849 340 851 342 850 b 332 374 336 679 336 526 b 325 238 331 328 332 283 b 214 231 308 128 228 119 z "},"I":{"ha":511,"x_min":0,"x_max":0,"o":"m 425 819 b 468 847 447 818 465 821 b 464 940 472 879 474 910 b 443 961 461 949 461 960 b 367 964 418 963 392 964 b 108 958 281 963 193 961 b 49 946 89 957 58 967 b 49 826 31 907 32 867 b 72 815 51 819 58 815 b 150 815 99 817 124 815 b 150 142 150 592 150 367 b 132 142 142 142 136 142 b 61 121 107 139 69 154 b 58 29 53 90 51 60 b 100 0 61 13 64 -1 b 407 -1 201 1 303 -1 b 450 11 422 -1 443 -7 b 450 128 467 50 467 89 b 432 139 449 133 443 139 b 349 139 403 139 376 139 b 349 818 349 365 349 592 b 425 819 400 819 414 819 z "},"H":{"ha":817,"x_min":0,"x_max":0,"o":"m 536 54 b 574 15 535 36 533 19 b 718 17 622 10 669 8 b 742 38 732 19 743 21 b 733 239 736 104 736 172 b 726 451 732 310 728 381 b 718 701 722 535 719 618 b 710 922 717 775 714 849 b 686 960 710 936 724 956 b 533 958 633 965 583 967 b 508 944 522 957 508 956 b 526 524 515 736 526 718 b 293 524 451 524 374 524 b 300 931 293 926 300 840 b 282 961 300 942 308 957 b 114 960 226 971 169 971 b 97 950 107 958 97 957 b 99 850 97 917 99 883 b 92 588 97 763 92 675 b 93 313 92 496 93 404 b 97 54 93 226 93 140 b 124 4 97 36 82 11 b 250 1 167 -3 208 -3 b 300 33 276 4 303 1 b 299 379 293 89 299 322 b 539 379 374 379 453 379 b 536 54 539 254 536 154 z "},"G":{"ha":747,"x_min":0,"x_max":0,"o":"m 492 681 b 624 681 536 676 581 675 b 661 696 639 682 660 681 b 651 860 664 722 660 835 b 576 943 640 893 624 926 b 360 964 508 967 433 968 b 215 922 311 961 247 949 b 72 318 60 797 49 478 b 122 135 81 256 93 194 b 442 1 182 8 294 -4 b 590 40 500 3 550 15 b 685 183 643 75 672 132 b 664 489 717 304 731 489 b 478 489 601 490 540 490 b 411 467 453 488 419 496 b 414 367 403 433 403 400 b 460 349 419 349 436 346 b 494 350 469 350 482 350 b 422 119 500 243 481 154 b 286 247 372 89 307 157 b 267 461 272 318 261 389 b 417 839 269 519 289 857 b 450 779 432 838 443 819 b 492 681 458 728 460 683 z "},"F":{"ha":576,"x_min":0,"x_max":0,"o":"m 508 413 b 508 501 511 443 514 472 b 464 528 503 519 493 529 b 297 526 408 525 351 526 b 293 835 286 686 292 674 b 486 835 358 835 422 833 b 551 856 510 835 543 825 b 550 960 560 890 561 925 b 524 976 547 968 542 976 b 182 974 410 975 297 974 b 83 906 97 974 83 967 b 99 47 83 604 99 326 b 142 -3 99 25 86 -3 b 236 -4 174 -3 207 -6 b 301 56 307 0 308 7 b 300 382 297 107 300 329 b 508 413 467 388 501 379 z "},"E":{"ha":599,"x_min":0,"x_max":0,"o":"m 289 849 b 453 847 361 846 408 846 b 522 874 482 849 518 839 b 519 968 526 906 531 938 b 503 986 518 975 518 986 b 401 988 469 988 436 988 b 174 982 326 986 250 986 b 100 967 150 981 117 993 b 86 894 86 943 86 918 b 97 65 90 588 97 336 b 160 7 97 21 110 7 b 490 6 269 7 381 6 b 558 25 514 6 550 -7 b 558 129 568 60 569 94 b 542 146 557 136 553 146 b 410 147 499 147 453 147 b 297 147 372 147 333 147 b 297 388 297 181 297 358 b 507 408 342 388 499 374 b 507 506 514 442 517 474 b 476 529 501 517 500 529 b 290 528 414 528 351 528 b 289 849 283 686 286 693 z "},"D":{"ha":781,"x_min":0,"x_max":0,"o":"m 131 969 b 93 944 90 967 93 956 b 90 721 100 869 90 796 b 89 571 90 671 89 621 b 90 333 89 492 90 413 b 89 196 90 288 89 242 b 90 50 89 147 90 99 b 133 7 90 28 90 8 b 286 6 183 4 236 -1 b 736 429 581 50 710 201 b 693 725 747 513 732 644 b 131 969 586 950 397 983 z m 300 819 b 292 144 608 807 619 161 b 300 819 297 418 282 547 z "},"C":{"ha":699,"x_min":0,"x_max":0,"o":"m 492 681 b 624 681 536 676 581 675 b 661 696 639 682 660 681 b 651 860 664 722 660 835 b 576 943 640 893 624 926 b 360 964 508 967 433 968 b 215 922 311 961 247 949 b 72 318 60 797 49 478 b 122 135 81 256 93 194 b 442 1 182 8 294 -4 b 631 76 522 4 589 25 b 678 226 649 99 682 178 b 647 264 676 247 667 263 b 528 265 607 267 568 268 b 474 225 492 263 478 251 b 286 247 436 33 315 118 b 267 461 272 318 261 389 b 417 839 269 519 289 857 b 450 779 432 838 443 819 b 492 681 458 728 460 683 z "},"B":{"ha":786,"x_min":0,"x_max":0,"o":"m 468 404 b 656 867 743 436 794 713 b 307 982 572 957 440 978 b 100 918 236 983 100 996 l 100 851 b 93 718 99 807 97 763 l 89 451 l 89 272 l 93 39 b 126 0 93 21 89 4 b 457 1 225 -12 351 -11 b 468 404 794 42 753 376 z m 306 881 b 299 444 590 903 536 418 b 306 881 306 622 299 704 z m 300 313 b 307 71 565 343 585 43 l 303 313 z "},"A":{"ha":710,"x_min":0,"x_max":0,"o":"m 474 44 b 501 13 478 32 474 17 b 660 14 557 6 608 4 b 681 29 672 15 682 18 b 660 117 674 58 667 88 b 617 300 647 178 631 239 b 581 483 601 361 592 422 b 549 625 569 531 558 578 b 478 932 526 728 508 831 b 461 958 476 942 472 951 b 339 972 439 976 369 974 b 267 960 318 971 282 971 b 242 903 250 949 249 918 b 211 824 232 876 222 850 b 158 653 193 767 174 710 b 117 494 142 600 128 547 b 72 286 100 425 83 356 b 36 54 58 210 49 132 b 76 4 32 31 24 7 b 201 7 118 3 160 0 b 233 21 214 8 232 8 b 236 174 239 50 233 146 b 451 174 310 174 381 174 b 474 47 457 151 468 65 z m 267 315 b 350 681 289 438 317 558 b 428 315 376 557 401 436 b 268 315 374 315 322 315 z "},"a":{"ha":710,"x_min":0,"x_max":0,"o":"m 474 44 b 501 13 478 32 474 17 b 660 14 557 6 608 4 b 681 29 672 15 682 18 b 660 117 674 58 667 88 b 617 300 647 178 631 239 b 581 483 601 361 592 422 b 549 625 569 531 558 578 b 478 932 526 728 508 831 b 461 958 476 942 472 951 b 339 972 439 976 369 974 b 267 960 318 971 282 971 b 242 903 250 949 249 918 b 211 824 232 876 222 850 b 158 653 193 767 174 710 b 117 494 142 600 128 547 b 72 286 100 425 83 356 b 36 54 58 210 49 132 b 76 4 32 31 24 7 b 201 7 118 3 160 0 b 233 21 214 8 232 8 b 236 174 239 50 233 146 b 451 174 310 174 381 174 b 474 47 457 151 468 65 z m 267 315 b 350 681 289 438 317 558 b 428 315 376 557 401 436 b 268 315 374 315 322 315 z "},"T":{"ha":540,"x_min":0,"x_max":0,"o":"m 469 826 b 518 847 493 826 514 825 b 497 964 522 865 533 964 b 340 965 443 965 392 965 b 76 964 251 965 164 965 b 28 953 60 964 36 969 b 26 832 10 913 10 872 b 47 822 28 825 33 822 b 161 824 83 824 122 824 b 161 813 161 821 161 817 b 158 56 161 543 157 303 b 193 6 158 38 144 11 b 351 8 243 0 303 1 b 374 17 360 10 369 11 b 376 25 376 19 376 22 b 364 828 357 319 364 567 b 464 826 397 828 431 828 z "},"x":{"ha":701,"x_min":0,"x_max":0,"o":"m 510 10 b 603 6 540 6 572 4 b 651 8 619 6 636 7 b 686 18 661 10 683 10 b 683 28 689 21 685 25 b 465 431 603 151 542 297 b 456 468 458 443 451 457 b 651 925 475 608 586 794 b 624 960 664 950 658 957 b 517 961 589 963 551 964 b 458 947 497 960 467 963 b 350 603 411 858 382 689 b 235 943 303 719 278 833 b 214 958 232 950 225 956 b 40 957 157 971 99 969 b 28 944 32 956 24 953 b 239 476 90 799 160 638 b 249 443 243 465 251 453 b 101 51 203 307 149 181 b 128 1 93 32 68 6 b 164 -1 140 0 151 -1 b 307 60 268 -6 292 7 b 364 318 319 113 343 265 b 450 71 392 269 424 119 b 510 10 464 44 472 14 z "},"v":{"ha":697,"x_min":0,"x_max":0,"o":"m 317 492 b 276 721 301 568 290 644 b 239 921 264 788 251 854 b 207 968 233 938 249 963 b 61 969 158 975 110 976 b 39 919 19 964 35 947 b 57 831 43 890 50 860 b 86 668 67 776 76 722 b 108 535 93 624 100 579 b 140 385 118 485 128 435 b 178 235 151 335 164 285 b 226 82 192 183 207 132 b 300 4 239 53 232 11 b 432 6 343 0 389 0 b 476 31 453 8 469 15 b 536 254 503 104 518 179 b 581 467 551 325 567 396 b 624 725 597 553 610 639 b 653 904 633 785 643 844 b 617 981 667 967 685 975 b 531 982 589 983 558 983 b 451 933 483 981 457 971 b 417 717 443 861 428 789 b 376 483 401 639 390 561 b 350 338 368 438 360 392 b 318 490 339 394 326 442 z "},"w":{"ha":997,"x_min":0,"x_max":0,"o":"m 332 347 b 272 761 297 546 281 706 b 247 919 264 814 258 867 b 201 974 242 940 251 969 b 76 974 160 978 118 979 b 47 917 18 969 39 958 b 60 843 51 892 57 867 b 92 631 72 772 82 701 b 133 351 107 538 118 444 b 197 56 151 253 168 154 b 240 4 201 36 193 10 b 378 6 286 0 332 -1 b 414 19 392 7 410 7 b 511 497 444 140 474 379 b 622 64 550 386 585 165 b 668 15 631 44 626 19 b 793 14 710 11 751 8 b 842 31 811 17 840 14 b 967 926 874 339 885 640 b 939 954 969 944 961 951 b 807 956 893 960 850 961 b 761 943 790 954 764 956 b 686 353 733 763 701 565 b 607 769 667 411 625 714 b 510 807 590 817 557 807 b 440 783 468 807 450 807 b 332 347 408 715 351 421 z "},"u":{"ha":792,"x_min":0,"x_max":0,"o":"m 292 339 b 286 942 292 596 290 769 b 264 958 286 949 281 956 b 103 958 211 968 158 968 b 81 943 92 957 81 954 b 81 881 81 922 81 901 b 85 340 81 663 76 503 b 378 -6 93 153 114 7 b 719 392 700 -21 717 185 b 722 575 722 453 722 514 b 718 796 722 649 719 722 b 711 935 717 838 711 893 b 668 974 711 957 703 971 b 549 972 628 976 589 978 b 510 946 528 969 508 968 b 518 324 518 726 526 518 b 292 339 507 47 276 89 z "},"t":{"ha":540,"x_min":0,"x_max":0,"o":"m 469 826 b 518 847 493 826 514 825 b 497 964 522 865 533 964 b 340 965 443 965 392 965 b 76 964 251 965 164 965 b 28 953 60 964 36 969 b 26 832 10 913 10 872 b 47 822 28 825 33 822 b 161 824 83 824 122 824 b 161 813 161 821 161 817 b 158 56 161 543 157 303 b 193 6 158 38 144 11 b 351 8 243 0 303 1 b 374 17 360 10 369 11 b 376 25 376 19 376 22 b 364 828 357 319 364 567 b 464 826 397 828 431 828 z "},"s":{"ha":653,"x_min":0,"x_max":0,"o":"m 417 644 b 550 640 461 636 506 636 b 600 654 567 642 594 640 b 607 799 608 693 617 732 b 353 972 590 925 482 972 b 53 861 183 972 82 933 b 233 514 6 742 157 597 b 378 307 297 450 343 381 b 414 185 394 267 414 226 b 261 178 414 69 269 72 b 258 297 258 222 256 269 b 222 325 260 319 243 322 b 94 325 181 331 139 331 b 53 301 75 322 56 321 b 81 88 47 218 56 135 b 336 4 118 14 200 4 b 549 369 626 4 661 175 b 260 757 485 475 314 629 b 394 751 215 871 394 907 b 393 685 394 721 393 696 b 417 644 394 663 399 647 z "},"r":{"ha":714,"x_min":0,"x_max":0,"o":"m 667 544 b 126 965 707 868 469 1028 b 101 947 114 963 101 961 b 93 53 97 629 93 342 l 93 42 b 119 22 93 32 107 24 b 276 22 164 19 231 15 b 301 33 286 24 301 25 b 301 92 303 53 301 72 l 301 178 b 390 231 326 192 357 210 b 514 10 528 189 464 11 b 599 6 542 8 569 6 b 642 10 611 6 628 7 b 669 28 667 14 669 17 b 524 328 668 124 681 279 b 667 544 594 389 656 461 z m 293 335 b 303 838 289 347 297 771 b 293 336 494 806 553 457 z "},"q":{"ha":782,"x_min":0,"x_max":0,"o":"m 733 351 b 608 921 769 551 760 789 b 240 933 531 989 317 985 b 218 33 0 774 -33 193 b 540 24 283 -8 457 -14 b 585 51 557 31 572 40 b 631 -36 593 17 603 -22 b 768 -47 661 -54 726 -49 b 790 -31 783 -47 797 -42 b 674 168 761 18 701 117 b 733 351 706 232 725 303 z m 518 303 b 428 268 469 304 397 321 b 494 175 439 251 458 225 b 303 176 442 107 367 79 b 281 700 219 303 207 535 b 528 692 360 881 469 881 b 522 304 567 567 558 410 z "},"p":{"ha":701,"x_min":0,"x_max":0,"o":"m 668 564 b 632 751 674 628 660 690 b 158 972 558 918 349 992 b 90 942 131 969 92 968 b 86 721 86 876 86 786 b 89 46 86 463 89 254 b 122 3 89 24 89 6 b 250 3 167 -1 208 -3 b 289 15 264 4 286 3 b 290 72 292 33 290 53 b 290 142 290 115 290 97 b 668 564 518 178 651 381 z m 289 811 b 290 304 578 806 524 331 b 289 811 290 507 290 551 z "},"o":{"ha":789,"x_min":0,"x_max":0,"o":"m 51 475 b 133 117 49 353 68 222 b 243 21 158 78 186 38 b 626 107 364 -15 550 -17 b 726 507 703 235 731 371 b 701 683 724 567 717 625 b 392 947 664 833 590 947 b 51 475 106 940 56 651 z m 289 208 b 282 694 240 347 235 542 b 497 696 333 874 447 869 b 476 213 540 543 531 351 b 289 208 432 88 335 82 z "},"n":{"ha":817,"x_min":0,"x_max":0,"o":"m 333 897 b 310 939 325 911 322 926 b 272 957 301 947 292 954 b 140 958 228 963 183 964 b 97 942 124 957 99 958 b 97 183 78 699 90 438 b 101 51 99 142 99 93 b 136 3 103 33 86 7 b 274 4 182 -1 228 -3 b 307 17 286 6 307 6 b 301 86 308 39 303 63 b 293 276 300 147 297 215 b 289 501 292 351 290 426 b 289 621 289 542 289 582 b 286 622 286 622 286 622 b 447 239 357 478 400 358 b 501 56 467 183 486 111 b 582 1 511 24 528 0 b 672 1 611 1 642 1 b 728 43 710 3 731 14 b 719 247 724 106 722 185 b 718 456 718 317 718 386 b 718 681 718 531 718 606 b 722 781 718 714 719 747 b 726 910 724 824 726 867 b 699 953 726 926 740 949 b 549 951 649 958 599 960 b 524 938 536 950 524 949 b 519 821 524 899 522 860 b 539 386 517 729 539 474 b 333 897 482 506 406 790 z "},"m":{"ha":947,"x_min":0,"x_max":0,"o":"m 681 51 b 715 6 682 32 674 10 b 853 6 761 0 807 -1 b 881 68 897 11 883 38 b 839 713 861 307 844 510 b 832 881 836 768 836 825 b 782 944 831 906 849 942 b 733 947 767 944 750 949 b 614 917 692 943 639 960 b 508 710 574 849 540 779 b 468 626 497 682 482 656 b 417 738 450 665 432 701 b 353 888 393 788 376 838 b 293 946 343 911 347 942 b 161 946 250 950 207 951 b 97 918 142 943 99 939 b 82 411 89 743 86 578 b 78 224 81 349 78 286 b 81 32 78 160 81 96 b 114 -6 81 14 78 -3 b 247 -6 158 -10 201 -11 b 282 8 260 -4 281 -6 b 281 54 283 24 281 39 b 282 258 281 122 281 190 b 289 563 285 371 289 467 b 393 214 317 513 374 306 b 482 151 410 139 410 154 b 561 213 565 149 550 154 b 642 553 582 318 608 449 b 681 51 656 386 667 210 z "},"l":{"ha":601,"x_min":0,"x_max":0,"o":"m 199 983 b 110 978 168 983 140 982 b 83 957 93 975 83 969 b 83 799 83 904 83 851 b 86 644 83 747 83 696 b 93 415 89 568 92 492 b 100 232 97 354 99 293 b 110 49 101 171 107 110 b 176 -1 111 14 132 -1 b 524 -1 292 -1 408 -3 b 608 31 558 -1 607 -14 b 607 110 610 57 614 83 b 586 136 603 119 603 135 b 489 136 553 139 519 136 b 308 136 428 136 368 136 b 290 949 297 404 285 674 b 199 983 290 986 228 983 z "},"k":{"ha":719,"x_min":0,"x_max":0,"o":"m 483 524 l 553 644 b 624 765 578 685 601 725 b 703 913 651 814 676 864 b 676 953 717 935 718 949 b 550 953 633 957 592 958 b 507 932 532 950 514 949 b 457 835 492 899 474 867 b 364 672 426 781 397 726 b 292 549 340 631 317 589 b 292 939 289 767 292 857 b 269 969 292 951 299 965 b 108 969 215 978 161 979 b 89 958 100 968 89 967 l 86 838 b 100 54 100 358 108 197 b 115 0 99 35 86 10 b 192 -3 135 -7 169 -1 b 292 4 226 -4 260 -1 b 310 17 300 6 310 8 b 303 83 308 39 307 61 l 299 194 l 358 303 b 494 19 397 199 450 60 b 651 3 511 3 594 -3 b 685 57 706 6 701 21 b 469 500 647 142 528 340 z "},"j":{"ha":674,"x_min":0,"x_max":0,"o":"m 214 231 b 210 347 208 276 208 319 b 192 381 210 360 222 375 b 72 385 151 388 111 389 b 11 368 50 383 17 386 b 22 128 0 321 1 175 b 126 26 40 86 68 49 b 324 4 189 3 257 1 b 539 374 568 17 532 235 b 543 853 549 540 543 697 b 581 853 560 853 569 853 b 639 876 607 853 633 847 b 636 969 643 908 647 939 b 610 993 632 979 632 993 b 151 992 517 993 244 993 b 85 968 125 992 92 1000 b 83 878 81 938 81 908 b 136 851 86 853 107 849 b 340 853 144 853 331 853 b 342 849 340 851 342 850 b 332 374 336 679 336 526 b 325 238 331 328 332 283 b 214 231 308 128 228 119 z "},"i":{"ha":511,"x_min":0,"x_max":0,"o":"m 425 819 b 468 847 447 818 465 821 b 464 940 472 879 474 910 b 443 961 461 949 461 960 b 367 964 418 963 392 964 b 108 958 281 963 193 961 b 49 946 89 957 58 967 b 49 826 31 907 32 867 b 72 815 51 819 58 815 b 150 815 99 817 124 815 b 150 142 150 592 150 367 b 132 142 142 142 136 142 b 61 121 107 139 69 154 b 58 29 53 90 51 60 b 100 0 61 13 64 -1 b 407 -1 201 1 303 -1 b 450 11 422 -1 443 -7 b 450 128 467 50 467 89 b 432 139 449 133 443 139 b 349 139 403 139 376 139 b 349 818 349 365 349 592 b 425 819 400 819 414 819 z "},"h":{"ha":817,"x_min":0,"x_max":0,"o":"m 536 54 b 574 15 535 36 533 19 b 718 17 622 10 669 8 b 742 38 732 19 743 21 b 733 239 736 104 736 172 b 726 451 732 310 728 381 b 718 701 722 535 719 618 b 710 922 717 775 714 849 b 686 960 710 936 724 956 b 533 958 633 965 583 967 b 508 944 522 957 508 956 b 526 524 515 736 526 718 b 293 524 451 524 374 524 b 300 931 293 926 300 840 b 282 961 300 942 308 957 b 114 960 226 971 169 971 b 97 950 107 958 97 957 b 99 850 97 917 99 883 b 92 588 97 763 92 675 b 93 313 92 496 93 404 b 97 54 93 226 93 140 b 124 4 97 36 82 11 b 250 1 167 -3 208 -3 b 300 33 276 4 303 1 b 299 379 293 89 299 322 b 539 379 374 379 453 379 b 536 54 539 254 536 154 z "},"g":{"ha":747,"x_min":0,"x_max":0,"o":"m 492 681 b 624 681 536 676 581 675 b 661 696 639 682 660 681 b 651 860 664 722 660 835 b 576 943 640 893 624 926 b 360 964 508 967 433 968 b 215 922 311 961 247 949 b 72 318 60 797 49 478 b 122 135 81 256 93 194 b 442 1 182 8 294 -4 b 590 40 500 3 550 15 b 685 183 643 75 672 132 b 664 489 717 304 731 489 b 478 489 601 490 540 490 b 411 467 453 488 419 496 b 414 367 403 433 403 400 b 460 349 419 349 436 346 b 494 350 469 350 482 350 b 422 119 500 243 481 154 b 286 247 372 89 307 157 b 267 461 272 318 261 389 b 417 839 269 519 289 857 b 450 779 432 838 443 819 b 492 681 458 728 460 683 z "},"f":{"ha":576,"x_min":0,"x_max":0,"o":"m 508 413 b 508 501 511 443 514 472 b 464 528 503 519 493 529 b 297 526 408 525 351 526 b 293 835 286 686 292 674 b 486 835 358 835 422 833 b 551 856 510 835 543 825 b 550 960 560 890 561 925 b 524 976 547 968 542 976 b 182 974 410 975 297 974 b 83 906 97 974 83 967 b 99 47 83 604 99 326 b 142 -3 99 25 86 -3 b 236 -4 174 -3 207 -6 b 301 56 307 0 308 7 b 300 382 297 107 300 329 b 508 413 467 388 501 379 z "},"e":{"ha":599,"x_min":0,"x_max":0,"o":"m 289 849 b 453 847 361 846 408 846 b 522 874 482 849 518 839 b 519 968 526 906 531 938 b 503 986 518 975 518 986 b 401 988 469 988 436 988 b 174 982 326 986 250 986 b 100 967 150 981 117 993 b 86 894 86 943 86 918 b 97 65 90 588 97 336 b 160 7 97 21 110 7 b 490 6 269 7 381 6 b 558 25 514 6 550 -7 b 558 129 568 60 569 94 b 542 146 557 136 553 146 b 410 147 499 147 453 147 b 297 147 372 147 333 147 b 297 388 297 181 297 358 b 507 408 342 388 499 374 b 507 506 514 442 517 474 b 476 529 501 517 500 529 b 290 528 414 528 351 528 b 289 849 283 686 286 693 z "},"d":{"ha":781,"x_min":0,"x_max":0,"o":"m 131 969 b 93 944 90 967 93 956 b 90 721 100 869 90 796 b 89 571 90 671 89 621 b 90 333 89 492 90 413 b 89 196 90 288 89 242 b 90 50 89 147 90 99 b 133 7 90 28 90 8 b 286 6 183 4 236 -1 b 736 429 581 50 710 201 b 693 725 747 513 732 644 b 131 969 586 950 397 983 z m 300 819 b 292 144 608 807 619 161 b 300 819 297 418 282 547 z "},"c":{"ha":699,"x_min":0,"x_max":0,"o":"m 492 681 b 624 681 536 676 581 675 b 661 696 639 682 660 681 b 651 860 664 722 660 835 b 576 943 640 893 624 926 b 360 964 508 967 433 968 b 215 922 311 961 247 949 b 72 318 60 797 49 478 b 122 135 81 256 93 194 b 442 1 182 8 294 -4 b 631 76 522 4 589 25 b 678 226 649 99 682 178 b 647 264 676 247 667 263 b 528 265 607 267 568 268 b 474 225 492 263 478 251 b 286 247 436 33 315 118 b 267 461 272 318 261 389 b 417 839 269 519 289 857 b 450 779 432 838 443 819 b 492 681 458 728 460 683 z "},"b":{"ha":786,"x_min":0,"x_max":0,"o":"m 468 404 b 656 867 743 436 794 713 b 307 982 572 957 440 978 b 100 918 236 983 100 996 l 100 851 b 93 718 99 807 97 763 l 89 451 l 89 272 l 93 39 b 126 0 93 21 89 4 b 457 1 225 -12 351 -11 b 468 404 794 42 753 376 z m 306 881 b 299 444 590 903 536 418 b 306 881 306 622 299 704 z m 300 313 b 307 71 565 343 585 43 l 303 313 z "},":":{"ha":390,"x_min":0,"x_max":0,"o":"m 293 374 b 197 456 308 451 218 456 b 135 444 175 456 156 453 b 118 349 92 431 85 379 b 201 326 143 326 172 326 b 222 326 208 326 217 326 b 293 374 256 329 289 336 z m 293 49 b 197 131 308 126 218 131 b 135 119 175 131 156 128 b 118 24 92 106 85 54 b 201 1 143 1 172 1 b 222 1 208 1 217 1 b 293 49 256 4 289 11 z "},"±":{"ha":532,"x_min":0,"x_max":0,"o":"m 197 561 l 197 465 l 90 465 b 67 447 69 465 67 449 b 76 368 60 421 61 378 b 89 365 78 367 83 365 b 197 363 124 364 160 363 l 197 271 b 218 251 197 254 217 251 b 314 260 250 246 301 247 b 317 269 315 261 317 265 b 319 361 317 300 318 331 b 425 360 356 360 390 360 b 447 371 436 360 443 363 b 439 465 451 386 460 465 l 322 465 b 324 550 322 493 322 521 b 310 568 324 560 319 565 b 197 561 292 572 197 579 z m 439 101 b 426 101 433 101 431 101 b 90 101 315 101 206 101 b 67 83 69 101 67 85 b 76 4 60 57 61 14 b 89 1 78 3 83 1 b 425 -4 200 -1 314 -3 b 447 7 436 -4 443 -1 b 439 101 451 22 460 101 z "},"™":{"ha":519,"x_min":0,"x_max":0,"o":"m 189 928 b 201 933 194 928 200 928 b 194 968 203 939 207 968 b 149 968 181 968 164 968 b 69 968 122 968 97 968 b 56 964 65 968 58 969 b 56 929 50 953 50 942 b 61 926 56 928 57 926 b 94 926 72 926 83 926 b 94 924 94 926 94 925 b 94 703 94 844 93 775 b 106 688 94 697 90 689 b 151 689 119 686 139 686 b 158 692 156 689 158 689 b 160 693 160 692 160 693 b 156 928 153 779 156 851 b 185 928 165 928 175 928 z m 411 701 b 422 688 411 696 410 689 b 464 688 436 686 450 686 b 472 706 476 689 474 697 b 460 894 467 776 461 835 b 457 943 458 911 458 928 b 442 963 457 951 461 961 b 428 963 439 963 433 964 b 392 954 415 961 400 967 b 360 893 381 935 369 914 b 349 869 357 886 353 878 b 333 901 343 881 339 892 b 315 946 326 917 322 931 b 297 963 311 953 311 961 b 257 963 283 964 269 964 b 236 954 251 961 239 961 b 233 807 235 903 235 856 b 232 751 232 788 232 769 b 232 696 232 733 232 714 b 242 685 232 690 232 685 b 282 685 257 683 268 683 b 293 689 286 685 292 685 b 292 701 293 693 292 697 b 293 761 292 722 292 742 b 294 850 293 794 294 822 b 326 749 303 836 319 775 b 353 731 332 726 332 731 b 376 749 376 729 374 731 b 400 847 382 779 390 817 b 411 701 406 799 408 747 z "},"”":{"ha":481,"x_min":0,"x_max":0,"o":"m 126 931 b 108 914 111 929 107 924 b 103 747 117 881 142 793 b 203 726 85 725 161 715 b 201 932 258 743 247 925 b 126 931 178 935 151 933 z m 283 931 b 265 914 268 929 264 924 b 260 747 274 881 299 793 b 360 726 242 725 318 715 b 358 932 415 743 403 925 b 283 931 335 935 308 933 z "},"“":{"ha":481,"x_min":0,"x_max":0,"o":"m 374 719 b 392 736 389 721 393 726 b 397 903 383 769 358 857 b 297 924 415 925 339 935 b 299 718 242 907 253 725 b 374 719 322 715 349 717 z m 217 719 b 235 736 232 721 236 726 b 240 903 226 769 201 857 b 140 924 258 925 182 935 b 142 718 85 907 97 725 b 217 719 165 715 192 717 z "},"’":{"ha":328,"x_min":0,"x_max":0,"o":"m 125 931 b 107 914 110 929 106 924 b 101 747 115 881 140 793 b 201 726 83 725 160 715 b 200 932 257 743 244 925 b 125 931 176 935 150 933 z "},"‘":{"ha":328,"x_min":0,"x_max":0,"o":"m 215 719 b 233 736 231 721 235 726 b 239 903 225 769 200 857 b 139 924 257 925 181 935 b 140 718 83 907 96 725 b 215 719 164 715 190 717 z "},"£":{"ha":726,"x_min":0,"x_max":0,"o":"m 425 139 l 308 139 b 300 347 306 201 301 276 b 518 346 381 346 461 346 b 542 361 532 346 539 349 b 533 488 547 381 556 488 l 297 488 b 444 839 303 585 331 854 b 478 779 460 838 472 819 b 519 681 486 728 489 683 b 651 681 565 676 608 675 b 690 696 667 682 689 681 b 681 860 692 722 689 835 b 606 943 668 893 651 926 b 389 964 536 967 461 968 b 243 922 340 961 275 949 b 92 488 132 833 94 646 l 85 488 b 61 464 65 488 61 465 b 72 357 56 428 57 369 b 83 353 74 356 78 353 b 93 351 86 353 90 351 l 100 232 b 103 139 100 200 101 169 l 74 139 b 50 115 53 139 50 117 b 60 8 43 79 44 21 b 72 4 61 7 67 4 b 147 1 97 3 122 1 b 176 -1 156 0 165 -1 l 283 -1 l 328 -1 l 333 -1 b 410 -3 358 -1 385 -3 b 418 -1 414 -3 417 -3 l 597 -1 b 682 31 632 -1 681 -14 b 681 110 683 57 686 83 b 660 136 676 119 676 135 b 561 136 626 139 593 136 l 431 136 b 425 139 428 138 426 139 z "},"@":{"ha":1092,"x_min":0,"x_max":0,"o":"m 581 1006 b 164 739 369 1001 235 882 b 256 86 61 532 57 236 b 868 94 431 -47 690 -29 b 808 199 951 156 856 218 b 317 229 626 90 406 88 b 275 482 269 304 268 396 b 356 750 282 575 300 672 b 622 878 425 847 524 893 b 874 478 832 846 897 640 b 800 476 860 385 794 368 b 800 568 801 507 807 539 b 743 658 794 604 769 636 b 643 703 714 682 676 694 b 457 674 581 715 510 710 b 340 444 383 625 350 532 b 381 286 332 388 336 322 b 449 256 400 269 424 261 b 667 282 522 239 606 240 b 681 286 672 285 675 286 b 693 282 683 286 689 285 b 978 350 786 232 926 244 b 581 1006 1108 608 958 1001 z m 560 383 b 522 350 551 363 539 343 b 508 381 515 354 510 372 b 564 604 497 460 522 538 b 583 621 569 613 576 619 b 608 608 592 624 601 621 b 560 383 626 575 574 415 z "},"^":{"ha":703,"x_min":0,"x_max":0,"o":"m 58 607 b 203 576 47 586 181 581 b 231 590 215 575 224 579 b 343 785 268 654 307 719 b 458 590 381 719 418 654 b 485 576 465 579 474 575 b 626 613 508 581 639 592 b 619 624 622 617 622 621 l 407 978 b 282 978 389 999 294 997 l 65 618 b 58 607 64 615 64 611 z "}}}
